<?xml version="1.0" encoding="iso-8859-1"?>
<!-- Uploaded to: SVG Repo, www.svgrepo.com, Generator: SVG Repo Mixer Tools -->
<svg height="800px" width="800px" version="1.1" id="Layer_1" xmlns="http://www.w3.org/2000/svg" xmlns:xlink="http://www.w3.org/1999/xlink" 
	 viewBox="0 0 508 508" xml:space="preserve">
<path style="fill:#FFFFFF;" d="M254,28.2C129.5,28.2,28.2,129.5,28.2,254S129.5,479.8,254,479.8S479.8,378.5,479.8,254
	S378.5,28.2,254,28.2z"/>
<path style="fill:#FFC10D;" d="M254,451.6C145.1,451.6,56.4,363,56.4,254S145.1,56.4,254,56.4S451.6,145,451.6,254
	S362.9,451.6,254,451.6z"/>
<path style="fill:#56ACE0;" d="M207.4,345.6c3.9,0,7.6-1.3,10.8-3.9l93.4-73.8c4.3-3.4,6.7-8.4,6.7-13.9s-2.4-10.5-6.7-13.9
	l-93.4-73.8c-3.2-2.6-6.9-3.9-10.8-3.9c-8.8,0-17.8,6.6-17.8,17.7v147.7C189.6,338.9,198.7,345.6,207.4,345.6L207.4,345.6z"/>
<g>
	<path style="fill:#194F82;" d="M254,0C113.9,0,0,113.9,0,254s113.9,254,254,254s254-113.9,254-254S394.1,0,254,0z M254,479.8
		C129.5,479.8,28.2,378.5,28.2,254S129.5,28.2,254,28.2S479.8,129.5,479.8,254S378.5,479.8,254,479.8z"/>
	<path style="fill:#194F82;" d="M329.2,218l-93.4-73.8c-8.2-6.5-18-10-28.3-10c-25.4,0-46,20.6-46,46v147.7c0,25.3,20.7,46,46,46
		l0,0c10.3,0,20.1-3.4,28.3-9.9l93.4-73.8c11.1-8.8,17.4-21.9,17.4-36C346.6,239.9,340.3,226.8,329.2,218z M311.7,267.9l-93.4,73.8
		c-3.2,2.6-6.9,3.9-10.8,3.9c-8.8,0-17.8-6.6-17.8-17.7v-17.4h22c7.8,0,14.1-6.3,14.1-14.1c0-7.8-6.3-14.1-14.1-14.1h-22V254H254
		c7.8,0,14.1-6.3,14.1-14.1s-6.3-14.1-14.1-14.1h-64.4v-45.6c0-11.1,9.1-17.7,17.8-17.7c3.9,0,7.6,1.3,10.8,3.9l93.4,73.8
		c4.3,3.4,6.7,8.4,6.7,13.9C318.4,259.4,315.9,264.5,311.7,267.9z"/>
</g>
</svg>